<svg xmlns="http://www.w3.org/2000/svg" xmlns:xlink="http://www.w3.org/1999/xlink" viewBox="0,0,256,256" width="100px" height="100px" fill-rule="nonzero"><g transform=""><g fill-opacity="0" fill="#000000" fill-rule="nonzero" stroke="none" stroke-width="1" stroke-linecap="butt" stroke-linejoin="miter" stroke-miterlimit="10" stroke-dasharray="" stroke-dashoffset="0" font-family="none" font-weight="none" font-size="none" text-anchor="none" style="mix-blend-mode: normal"><path d="M0,256v-256h256v256z" id="bgRectangle"></path></g><g fill="none" fill-rule="nonzero" stroke="none" stroke-width="1" stroke-linecap="butt" stroke-linejoin="miter" stroke-miterlimit="10" stroke-dasharray="" stroke-dashoffset="0" font-family="none" font-weight="none" font-size="none" text-anchor="none" style="mix-blend-mode: normal"><g transform="scale(2.56,2.56)"><path d="M51.958,98c-0.58,0 -1.16,-0.078 -1.724,-0.232l-27.742,-7.702c-2.593,-0.72 -4.495,-3.004 -4.735,-5.685l-6.179,-69.304c-0.16,-1.813 0.451,-3.621 1.677,-4.962c1.23,-1.345 2.978,-2.115 4.798,-2.115h67.895c1.821,0 3.569,0.771 4.798,2.115c1.225,1.339 1.837,3.147 1.677,4.959l-6.187,69.296c-0.24,2.683 -2.145,4.967 -4.739,5.686l-27.803,7.709c-0.57,0.156 -1.152,0.235 -1.736,0.235z" fill="#000000" opacity="0.35"></path><path d="M49.958,96c-0.58,0 -1.16,-0.078 -1.724,-0.232l-27.742,-7.702c-2.593,-0.72 -4.495,-3.004 -4.735,-5.685l-6.179,-69.304c-0.16,-1.813 0.451,-3.621 1.677,-4.962c1.23,-1.345 2.978,-2.115 4.798,-2.115h67.895c1.821,0 3.569,0.771 4.798,2.115c1.225,1.339 1.837,3.147 1.677,4.959l-6.187,69.296c-0.24,2.683 -2.145,4.967 -4.739,5.686l-27.803,7.709c-0.57,0.156 -1.152,0.235 -1.736,0.235z" fill="#f2f2f2"></path><path d="M83.947,12.5l-6.185,69.292l-27.804,7.708l-27.727,-7.697l-6.178,-69.303z" fill="#2b59a1"></path><path d="M49.958,91c-0.135,0 -0.27,-0.019 -0.401,-0.055l-27.727,-7.696c-0.602,-0.167 -1.037,-0.689 -1.093,-1.312l-6.179,-69.303c-0.037,-0.419 0.104,-0.835 0.388,-1.146c0.284,-0.311 0.686,-0.488 1.107,-0.488h67.895c0.421,0 0.822,0.177 1.106,0.488c0.284,0.311 0.425,0.726 0.388,1.146l-6.186,69.292c-0.056,0.622 -0.491,1.145 -1.094,1.312l-27.804,7.709c-0.13,0.035 -0.265,0.053 -0.4,0.053zM23.634,80.635l26.324,7.309l26.402,-7.32l5.948,-66.624h-64.616z" fill="#40396e"></path><path d="M72.467,77.38l5.304,-59.423h-27.771v65.651z" fill="#2785bd"></path><path d="M50,43.957l1,4l-1,4h-19.06l-0.71,-8z" fill="#d9eeff"></path><path d="M50,26.957l1,4l-1,4h-20.559l-0.721,-8z" fill="#d9eeff"></path><path d="M51,69.957l-1,4.839l-17.45,-4.829l-1.16,-13.01h8.53l0.58,6.44l9.5,2.56z" fill="#d9eeff"></path><path d="M50,26.957v8h11.969l-0.807,9h-11.162c-0.009,-0.002 -0.008,8 -0.008,8h10.485l-1.027,11.44l-9.45,2.56v8.84l17.4,-4.83l0.12,-1.44l2,-22.37l0.21,-2.29l1.5,-16.91z" fill="#f2f2f2"></path></g></g></g></svg>