<?xml version="1.0" standalone="no"?>
<!DOCTYPE svg PUBLIC "-//W3C//DTD SVG 20010904//EN"
 "http://www.w3.org/TR/2001/REC-SVG-20010904/DTD/svg10.dtd">
<svg version="1.0" xmlns="http://www.w3.org/2000/svg"
 width="800.000000pt" height="800.000000pt" viewBox="0 0 800.000000 800.000000"
 preserveAspectRatio="xMidYMid meet">

<g transform="translate(0.000000,800.000000) scale(0.100000,-0.100000)"
fill="#ff0000" stroke="none">
<path d="M5553 7209 c-57 -28 -73 -66 -73 -173 l0 -85 -31 -17 -32 -16 -61 60
c-33 33 -71 65 -83 71 -30 15 -89 14 -121 -3 -15 -8 -103 -91 -197 -185 l-170
-171 -1143 0 c-972 0 -1148 -2 -1177 -14 -93 -39 -100 -182 -12 -236 31 -19
59 -20 1178 -20 l1145 0 33 -34 c29 -30 32 -38 24 -63 -9 -28 -11 -28 -104
-34 -155 -9 -189 -42 -189 -183 l0 -86 -147 0 c-177 0 -205 -10 -241 -80 -24
-48 -23 -83 5 -131 29 -49 47 -54 218 -59 l160 -5 5 -90 c8 -146 39 -175 186
-175 l92 0 13 -31 c12 -31 11 -33 -29 -71 l-42 -39 -201 1 c-221 2 -232 -1
-269 -63 -25 -41 -25 -93 0 -134 37 -62 46 -64 281 -64 l214 0 147 -147 146
-147 2 -215 c1 -236 3 -243 63 -281 61 -39 153 -12 189 54 5 10 9 106 8 220
l-1 202 40 39 c38 37 41 38 70 26 l31 -12 0 -92 c0 -147 29 -178 175 -186 l90
-5 5 -830 c5 -771 6 -833 23 -858 40 -61 141 -75 194 -26 55 51 53 23 53 904
l0 815 81 0 c145 0 179 35 188 190 6 92 7 95 34 104 24 9 31 6 62 -24 l35 -34
0 -198 c0 -223 7 -254 62 -288 68 -41 159 -16 191 53 14 29 17 69 17 239 l0
203 171 170 c94 94 177 182 185 197 17 32 18 91 3 121 -6 12 -38 50 -71 83
l-60 61 16 32 17 31 85 0 c109 0 145 16 174 75 20 42 21 56 18 342 -3 269 -5
301 -21 325 -34 50 -64 62 -169 66 -95 4 -97 5 -106 32 -9 25 -6 32 40 76 75
74 91 106 86 166 l-5 50 -221 220 -220 221 -50 5 c-60 5 -92 -11 -166 -86 -45
-46 -51 -49 -77 -40 -29 10 -29 11 -29 92 0 65 -5 91 -22 126 -41 78 -50 80
-383 80 -273 0 -292 -1 -332 -21z m467 -331 c7 -109 17 -120 185 -190 184 -77
230 -76 308 12 15 16 31 30 35 30 4 0 48 -40 97 -90 l89 -90 -35 -37 c-89 -94
-90 -125 -10 -312 69 -163 80 -174 189 -181 l77 -5 3 -132 3 -133 -61 0 c-66
0 -115 -16 -142 -47 -10 -10 -43 -79 -74 -153 -49 -117 -56 -141 -51 -183 4
-41 11 -55 51 -96 25 -25 46 -51 46 -57 0 -5 -40 -50 -90 -99 l-89 -89 -54 51
c-82 78 -99 78 -274 7 -186 -75 -203 -92 -203 -199 l0 -75 -134 0 -134 0 -3
73 c-6 105 -22 124 -161 182 -221 93 -235 94 -321 15 l-54 -49 -91 92 -90 92
49 54 c77 86 77 99 -16 319 -58 139 -77 155 -182 161 l-73 3 0 134 0 134 75 0
c107 0 124 17 199 203 71 175 71 192 -7 274 l-51 54 89 89 c49 50 94 90 99 90
6 0 32 -21 57 -46 41 -40 55 -47 96 -51 41 -4 66 2 170 46 68 28 126 51 131
51 14 0 60 54 71 83 6 16 11 55 11 88 l0 60 133 -3 132 -3 5 -77z"/>
<path d="M5760 6405 c-80 -20 -127 -42 -195 -90 -140 -100 -219 -260 -218
-440 1 -257 182 -471 440 -521 254 -50 514 102 600 349 70 199 22 409 -127
557 -133 133 -323 188 -500 145z m242 -285 c57 -28 88 -60 120 -120 32 -61 32
-176 1 -235 -71 -134 -224 -186 -356 -121 -97 47 -151 134 -150 242 1 119 74
217 193 255 46 15 142 5 192 -21z"/>
<path d="M1248 5999 c-50 -26 -72 -69 -65 -132 3 -38 11 -56 36 -80 l31 -32
253 -3 c239 -2 254 -1 285 18 61 37 79 122 39 181 -43 64 -65 69 -317 69 -204
-1 -228 -3 -262 -21z"/>
<path d="M2200 6004 c-46 -19 -80 -69 -80 -120 0 -146 203 -186 255 -50 28 73
-5 148 -78 175 -37 14 -54 13 -97 -5z"/>
<path d="M2733 6001 c-50 -23 -73 -62 -73 -126 0 -38 6 -52 34 -83 l34 -37
251 -3 c287 -3 297 -1 333 72 24 51 20 98 -14 141 -39 50 -68 55 -305 55 -193
0 -223 -3 -260 -19z"/>
<path d="M3673 6001 c-50 -23 -73 -63 -73 -126 0 -111 144 -168 223 -89 42 42
52 95 28 148 -33 76 -102 102 -178 67z"/>
<path d="M3128 5320 c-254 -63 -485 -256 -615 -515 -137 -272 -163 -620 -67
-909 26 -82 91 -219 126 -268 l19 -28 -374 0 c-211 0 -398 -4 -428 -10 -125
-24 -231 -106 -289 -224 -25 -51 -33 -81 -37 -147 l-5 -84 -77 -80 c-140 -145
-232 -274 -317 -444 -114 -230 -150 -377 -193 -791 -6 -52 -31 -283 -56 -513
-40 -372 -44 -421 -31 -450 29 -70 102 -100 174 -72 76 31 75 27 131 545 28
256 58 533 67 615 32 302 116 529 276 755 39 56 54 70 56 55 4 -37 82 -1169
79 -1169 -1 -1 -20 -10 -41 -21 -70 -35 -79 -57 -84 -202 -5 -159 9 -282 42
-357 48 -108 171 -202 295 -226 79 -15 3032 -14 3103 1 126 27 233 111 291
228 l32 66 0 210 c0 237 -3 248 -78 282 l-38 17 7 152 c6 145 6 154 -15 187
-30 49 -92 73 -148 58 -79 -21 -98 -69 -108 -258 l-7 -143 -1488 0 -1487 0 -6
57 c-4 32 -30 401 -59 821 l-52 763 20 36 c12 24 33 43 61 55 40 17 102 18
1536 16 1493 -3 1496 -3 1524 -24 58 -42 63 -70 51 -250 -11 -161 -11 -161 12
-199 37 -59 110 -81 170 -50 l29 15 54 -67 c177 -221 285 -492 316 -793 5 -47
21 -205 37 -352 l28 -268 -28 -57 c-43 -92 -56 -157 -56 -286 0 -144 12 -176
74 -207 41 -19 59 -20 532 -20 545 0 534 -1 581 69 21 30 23 46 23 150 0 72
-6 140 -15 176 -51 201 -217 364 -413 404 -80 17 -291 14 -373 -5 -39 -9 -72
-14 -73 -12 -2 1 -15 118 -30 258 -42 400 -81 565 -186 785 -82 170 -236 384
-364 503 -38 36 -45 47 -40 70 9 43 -13 141 -46 208 -53 108 -163 190 -290
214 -29 6 -216 10 -421 10 -203 0 -369 3 -369 6 0 3 9 19 20 34 34 47 86 160
119 256 155 454 0 996 -363 1270 -80 61 -221 129 -320 154 -106 27 -289 27
-398 0z m378 -273 c173 -63 309 -189 399 -372 108 -219 123 -469 43 -709 -37
-114 -92 -206 -175 -296 l-65 -70 -380 0 -380 0 -62 64 c-146 153 -226 367
-226 606 0 62 7 145 16 188 68 331 308 582 584 610 79 9 191 -1 246 -21z
m1434 -3821 c0 -96 -20 -138 -80 -168 -33 -17 -127 -18 -1533 -18 -1362 0
-1502 1 -1533 16 -57 27 -72 58 -74 154 -1 47 -2 88 -1 93 1 4 726 7 1611 7
l1610 0 0 -84z m1326 55 c82 -39 136 -111 150 -200 l7 -41 -338 0 -338 0 7 48
c12 86 87 177 172 207 25 9 83 14 159 15 112 0 124 -2 181 -29z"/>
<path d="M5145 3981 c-107 -65 -81 -224 41 -247 81 -15 154 48 154 133 0 103
-110 167 -195 114z"/>
<path d="M6491 3982 c-63 -34 -87 -111 -56 -175 24 -50 62 -72 122 -72 56 0
91 22 119 77 42 81 -27 188 -121 188 -17 0 -46 -8 -64 -18z"/>
<path d="M6483 3440 c-59 -36 -63 -54 -63 -312 0 -207 2 -237 18 -268 48 -92
186 -91 232 1 18 35 20 60 20 264 0 252 -6 280 -62 315 -42 25 -104 26 -145 0z"/>
<path d="M3123 2501 c-39 -25 -63 -68 -63 -116 0 -49 25 -88 72 -115 36 -20
49 -21 207 -18 191 3 209 9 245 82 24 49 15 97 -29 144 l-33 37 -184 3 c-168
2 -186 1 -215 -17z"/>
<path d="M4934 2501 c-32 -19 -64 -74 -64 -109 0 -89 93 -159 174 -132 109 36
129 182 33 240 -41 25 -103 25 -143 1z"/>
<path d="M6478 2495 c-70 -48 -76 -148 -13 -204 67 -58 153 -46 202 28 79 118
-70 257 -189 176z"/>
</g>
</svg>
